<svg width="23" height="28" viewBox="0 0 23 28" fill="none" xmlns="http://www.w3.org/2000/svg">
<path fill-rule="evenodd" clip-rule="evenodd" d="M22.055 23.8111L20.1961 6.55027C20.1076 6.10768 19.7535 5.75362 19.3109 5.75362H16.2128C16.2128 2.65551 14.354 0 10.9903 0C7.71517 0 5.85631 2.65551 5.85631 5.75362H2.75821C2.31562 5.75362 1.96155 6.10768 1.87304 6.55027L0.0141763 23.8111C-0.162858 25.67 1.34193 27.3518 3.20079 27.3518H18.8683C20.7272 27.3518 22.232 25.67 22.055 23.8111ZM10.9903 1.68183C13.4688 1.68183 14.531 3.54069 14.531 5.75362H7.53814C7.53814 3.54069 8.60034 1.68183 10.9903 1.68183ZM18.8683 25.67H3.20079C2.31562 25.67 1.60749 24.8733 1.696 23.9882L3.46635 7.43544H5.85631V9.55985C5.85631 10.7106 7.53814 10.7106 7.53814 9.55985V7.43544H14.531V9.55985C14.531 10.7106 16.2128 10.7106 16.2128 9.55985V7.43544H18.6028L20.3731 23.9882C20.4616 24.8733 19.7535 25.67 18.8683 25.67Z" fill="white"/>
</svg>
