<svg width="18" height="22" viewBox="0 0 18 22" fill="none" xmlns="http://www.w3.org/2000/svg">
<path d="M14.307 5.44753C14.307 2.42503 11.882 0 8.85946 0C5.83696 0 3.41193 2.42503 3.41193 5.44753C3.41193 8.43489 5.83696 10.8599 8.85946 10.8599C11.882 10.8599 14.307 8.43489 14.307 5.44753ZM4.81774 5.44753C4.81774 3.23338 6.6453 1.40582 8.85946 1.40582C11.0736 1.40582 12.9012 3.23338 12.9012 5.44753C12.9012 7.66169 11.0736 9.45411 8.85946 9.45411C6.6453 9.45411 4.81774 7.66169 4.81774 5.44753Z" fill="#041E50"/>
<path d="M0.178507 18.5918C-0.45411 20.1382 0.670543 21.8604 2.35752 21.8604H15.6425C17.3295 21.8604 18.4541 20.1382 17.8215 18.5918C16.1697 14.6555 12.8308 11.9845 9 11.9845C5.13401 11.9845 1.79519 14.6555 0.178507 18.5918ZM9 13.3903C12.1631 13.3903 15.045 15.6045 16.5211 19.1542C16.6968 19.5759 16.5211 19.9274 16.4508 20.0328C16.3805 20.1734 16.0994 20.4545 15.6425 20.4545H2.35752C1.90063 20.4545 1.65461 20.1734 1.54918 20.0328C1.47889 19.8922 1.30316 19.5759 1.47889 19.1542C2.95499 15.6045 5.83692 13.3903 9 13.3903Z" fill="#041E50"/>
</svg>
