<svg width="23" height="23" viewBox="0 0 23 23" fill="none" xmlns="http://www.w3.org/2000/svg">
<path d="M11.5998 0.824987L11.6 0.824987C13.2439 0.824517 14.8662 1.20038 16.3425 1.92377C17.8187 2.64717 19.1098 3.6989 20.1168 4.99838C21.1237 6.29786 21.8199 7.8106 22.1518 9.42071C22.4838 11.0308 22.4428 12.6955 22.0319 14.2873C21.6211 15.8791 20.8513 17.3558 19.7816 18.6041C18.7119 19.8524 17.3706 20.8393 15.8605 21.4891C14.3504 22.139 12.7116 22.4345 11.0696 22.3531C9.42768 22.2717 7.82616 21.8155 6.38777 21.0194L6.35161 20.9994L6.31188 21.0108L1.62188 22.3505C1.51474 22.3811 1.40137 22.3825 1.29351 22.3545C1.18566 22.3266 1.08724 22.2703 1.00845 22.1915C0.929668 22.1127 0.873375 22.0143 0.845407 21.9064C0.817441 21.7986 0.818811 21.6852 0.849374 21.5781C0.849377 21.5781 0.84938 21.5781 0.849383 21.578L2.18917 16.8881L2.20056 16.8482L2.18042 16.812C1.26924 15.1731 0.802234 13.3245 0.825696 11.4494C0.849158 9.57437 1.36227 7.73802 2.31418 6.1224C3.26608 4.50678 4.62371 3.16801 6.25249 2.2388C7.88126 1.30959 9.72461 0.822217 11.5998 0.824987ZM11.5998 21.125H11.5999C13.6994 21.1268 15.7406 20.4344 17.4057 19.1555C19.0708 17.8767 20.2663 16.0831 20.8061 14.0541C21.3458 12.0252 21.1996 9.87468 20.3901 7.93748C19.5806 6.00028 18.1532 4.38512 16.3303 3.34347C14.5074 2.30183 12.3912 1.89217 10.3112 2.17828C8.23129 2.46439 6.3043 3.43021 4.83034 4.92536C3.35637 6.42051 2.41814 8.36107 2.16173 10.4449C1.90533 12.5287 2.34514 14.6388 3.41269 16.4467L3.41269 16.4467C3.45594 16.5199 3.48379 16.6012 3.49454 16.6856C3.50529 16.7699 3.4987 16.8556 3.47519 16.9373L3.47514 16.9375L2.40939 20.6684L2.35995 20.8414L2.53302 20.792L6.26242 19.7262L6.26259 19.7262C6.34432 19.7027 6.42999 19.6961 6.51435 19.7068C6.59862 19.7176 6.67982 19.7454 6.75299 19.7886C8.21945 20.6608 9.89356 21.1224 11.5998 21.125Z" fill="#041E50" stroke="white" stroke-width="0.2"/>
<path d="M17.5402 14.1642C17.5428 14.1662 17.5445 14.1674 17.5453 14.168L17.5451 14.1682L17.5525 14.1736C17.6913 14.2738 17.8058 14.4039 17.8876 14.5542C17.969 14.7038 18.0159 14.8696 18.0251 15.0396C18.0244 15.128 17.9893 15.2426 17.916 15.3809C17.8429 15.519 17.7361 15.6726 17.6033 15.8354C17.3377 16.1607 16.9748 16.5143 16.5897 16.8417C16.2047 17.169 15.8004 17.4677 15.4534 17.6839C15.2798 17.7921 15.1222 17.8787 14.9897 17.9378C14.8538 17.9984 14.7555 18.025 14.6966 18.025C14.6067 18.025 11.9398 17.9912 8.55186 14.662C5.21102 11.2617 5.18089 8.59481 5.18089 8.50565C5.18089 8.44666 5.20739 8.34847 5.26791 8.21269C5.32693 8.08023 5.41332 7.92276 5.52135 7.74933C5.73727 7.40267 6.03552 6.99882 6.3623 6.61436C6.68927 6.22969 7.04238 5.86728 7.36741 5.60201C7.52998 5.46934 7.68344 5.36269 7.8214 5.28965C7.95969 5.21644 8.07428 5.18138 8.16266 5.18076C8.33185 5.18957 8.49699 5.2358 8.64618 5.31613C8.79613 5.39688 8.92619 5.51004 9.02689 5.64738L9.02634 5.64779L9.03163 5.65347C9.03229 5.65433 9.03332 5.65568 9.03482 5.65767L9.05152 5.68014C9.06604 5.69983 9.08689 5.72841 9.11315 5.76487C9.16565 5.83776 9.23954 5.94189 9.32726 6.06901C9.50277 6.32335 9.7332 6.66912 9.95816 7.04057C10.1834 7.41249 10.4017 7.80783 10.5542 8.16175C10.6304 8.33872 10.6892 8.50318 10.7244 8.64772C10.7599 8.79363 10.7694 8.91179 10.7541 8.99945C10.6847 9.39308 10.4374 9.60611 9.96551 10.0015L9.96501 10.0019C9.94795 10.0164 9.93124 10.0306 9.91492 10.0444C9.85834 10.0924 9.80648 10.1363 9.76089 10.1762L9.70866 10.2219L9.73319 10.2868C9.78131 10.4141 9.84629 10.5699 9.93253 10.7475L9.93256 10.7476C10.4666 11.8458 11.3537 12.7331 12.4517 13.2675L12.4519 13.2676C12.6302 13.3538 12.7859 13.4187 12.9132 13.4668L12.9797 13.492L13.0253 13.4374C13.0512 13.4064 13.0787 13.3744 13.1095 13.3386C13.136 13.3077 13.165 13.274 13.1975 13.2357L13.1977 13.2353C13.5947 12.7626 13.8069 12.5154 14.1997 12.4459C14.288 12.4306 14.4066 12.4402 14.5528 12.4757C14.6976 12.5109 14.8622 12.5697 15.0392 12.6459C15.3932 12.7983 15.7882 13.0166 16.1598 13.2419C16.5309 13.4668 16.8762 13.6972 17.1303 13.8727C17.2572 13.9605 17.3613 14.0344 17.4342 14.0869C17.4707 14.1131 17.4993 14.134 17.5191 14.1486C17.5291 14.156 17.5359 14.161 17.5402 14.1642ZM14.5747 16.759L14.6119 16.7636L14.643 16.7427C15.339 16.2737 15.9885 15.7392 16.5826 15.1464L16.6677 15.0614L16.5687 14.9932C15.9062 14.5373 15.214 14.1261 14.4967 13.7626L14.4294 13.7285L14.3781 13.7839C14.3141 13.853 14.2437 13.9373 14.1853 14.0072C14.1756 14.0188 14.1663 14.0299 14.1574 14.0406L14.1573 14.0405L14.1544 14.0443C13.9692 14.2878 13.7577 14.5101 13.5238 14.7073L13.3152 14.8562L13.0595 14.8122C12.6606 14.7211 12.2746 14.5807 11.9103 14.3943L11.9103 14.3942L11.9085 14.3934C10.5581 13.7362 9.46703 12.6454 8.80957 11.2952L8.80959 11.2952L8.80873 11.2935C8.62273 10.929 8.48257 10.5429 8.39143 10.144L8.34689 9.88849L8.49705 9.67925C8.69408 9.44542 8.91643 9.23415 9.16001 9.04931L9.16014 9.04948L9.16514 9.04514C9.19011 9.02345 9.22027 8.99791 9.25245 8.97067C9.30758 8.92399 9.36861 8.87231 9.41952 8.82645L9.47646 8.77515L9.44173 8.70683C9.07707 7.98954 8.66499 7.29738 8.20821 6.63493L8.1401 6.53614L8.05521 6.62096C7.46154 7.21409 6.92625 7.86291 6.45671 8.55845L6.43591 8.58925L6.44028 8.62615C6.50077 9.1373 6.91099 11.2084 9.43278 13.7754L9.43403 13.7767C11.9802 16.2783 14.0432 16.6926 14.5747 16.759Z" fill="#041E50" stroke="white" stroke-width="0.2"/>
</svg>
